{
  "accessors": [
    {
      "bufferView": 2,
      "componentType": 5126,
      "count": 39005,
      "max": [
        0.10918278247117996,
        0.064381271600723267,
        0.18705247342586517
      ],
      "min": [
        -0.10918278247117996,
        -0.034775830805301666,
        -0.011241674423217773
      ],
      "type": "VEC3"
    },
    {
      "bufferView": 2,
      "byteOffset": 468060,
      "componentType": 5126,
      "count": 39005,
      "max": [
        1,
        1,
        1
      ],
      "min": [
        -1,
        -1,
        -1
      ],
      "type": "VEC3"
    },
    {
      "bufferView": 1,
      "componentType": 5126,
      "count": 39005,
      "max": [
        1.0025101900100708,
        1.0000011920928955
      ],
      "min": [
        -0.0044685588218271732,
        0
      ],
      "type": "VEC2"
    },
    {
      "bufferView": 0,
      "componentType": 5125,
      "count": 156336,
      "max": [
        39004
      ],
      "min": [
        0
      ],
      "type": "SCALAR"
    },
    {
      "bufferView": 2,
      "byteOffset": 936120,
      "componentType": 5126,
      "count": 151,
      "max": [
        0.011951738968491554,
        -0.013968484476208687,
        0.17708690464496613
      ],
      "min": [
        -0.012121271342039108,
        -0.015390048734843731,
        0.15301388502120972
      ],
      "type": "VEC3"
    },
    {
      "bufferView": 2,
      "byteOffset": 937932,
      "componentType": 5126,
      "count": 151,
      "max": [
        0.98390549421310425,
        -0.17868936061859131,
        0.96291142702102661
      ],
      "min": [
        -0.9337611198425293,
        -1,
        -0.95948892831802368
      ],
      "type": "VEC3"
    },
    {
      "bufferView": 1,
      "byteOffset": 312040,
      "componentType": 5126,
      "count": 151,
      "max": [
        0.94904196262359619,
        0.44904178380966187
      ],
      "min": [
        0.55095821619033813,
        0.050958234816789627
      ],
      "type": "VEC2"
    },
    {
      "bufferView": 0,
      "byteOffset": 625344,
      "componentType": 5125,
      "count": 360,
      "max": [
        150
      ],
      "min": [
        0
      ],
      "type": "SCALAR"
    }
  ],
  "asset": {
    "extras": {
      "author": "Luca 3D (https://sketchfab.com/luca3d)",
      "license": "CC-BY-4.0 (http://creativecommons.org/licenses/by/4.0/)",
      "source": "https://sketchfab.com/3d-models/modern-faucet-high-poly-0982ad18e2fd4ab7abcb5f5a79ee70a7",
      "title": "Modern Faucet (high poly)"
    },
    "generator": "Sketchfab-7.51.0",
    "version": "2.0"
  },
  "bufferViews": [
    {
      "buffer": 0,
      "byteLength": 626784,
      "byteOffset": 0,
      "name": "floatBufferViews",
      "target": 34963
    },
    {
      "buffer": 0,
      "byteLength": 313248,
      "byteOffset": 626784,
      "byteStride": 8,
      "name": "floatBufferViews",
      "target": 34962
    },
    {
      "buffer": 0,
      "byteLength": 939744,
      "byteOffset": 940032,
      "byteStride": 12,
      "name": "floatBufferViews",
      "target": 34962
    }
  ],
  "buffers": [
    {
      "byteLength": 1879776,
      "uri": "scene.bin"
    }
  ],
  "materials": [
    {
      "doubleSided": true,
      "name": "Stainless_Steel",
      "pbrMetallicRoughness": {
        "baseColorFactor": [
          0.80000000000000004,
          0.80000000000000004,
          0.80000000000000004,
          1
        ],
        "metallicFactor": 1,
        "roughnessFactor": 0
      }
    },
    {
      "doubleSided": true,
      "name": "Black",
      "pbrMetallicRoughness": {
        "baseColorFactor": [
          0,
          0,
          0,
          1
        ],
        "metallicFactor": 0,
        "roughnessFactor": 0.40454499999999999
      }
    }
  ],
  "meshes": [
    {
      "primitives": [
        {
          "attributes": {
            "NORMAL": 1,
            "POSITION": 0,
            "TEXCOORD_0": 2
          },
          "indices": 3,
          "material": 0,
          "mode": 4
        }
      ]
    },
    {
      "primitives": [
        {
          "attributes": {
            "NORMAL": 5,
            "POSITION": 4,
            "TEXCOORD_0": 6
          },
          "indices": 7,
          "material": 1,
          "mode": 4
        }
      ]
    }
  ],
  "nodes": [
    {
      "children": [
        1
      ],
      "name": "RootNode (gltf orientation matrix)",
      "rotation": [
        -0.70710678118654746,
        -0,
        -0,
        0.70710678118654757
      ]
    },
    {
      "children": [
        2
      ],
      "name": "RootNode (model correction matrix)"
    },
    {
      "children": [
        3
      ],
      "name": "root"
    },
    {
      "children": [
        4
      ],
      "matrix": [
        1,
        0,
        0,
        0,
        0,
        2.2204460492503131e-16,
        1,
        0,
        0,
        -1,
        2.2204460492503131e-16,
        0,
        0,
        0,
        0,
        1
      ],
      "name": "GLTF_SceneRootNode"
    },
    {
      "children": [
        5,
        6
      ],
      "name": "Tap_0"
    },
    {
      "mesh": 0,
      "name": ""
    },
    {
      "mesh": 1,
      "name": ""
    }
  ],
  "scene": 0,
  "scenes": [
    {
      "name": "OSG_Scene",
      "nodes": [
        0
      ]
    }
  ]
}

